<?xml version="1.0" encoding="UTF-8"?>
<svg xmlns="http://www.w3.org/2000/svg" viewBox="0 0 1000 350">
  <g fill="#231f20">
    <path d="m290.2 44.1v8.6h-44.3v-51.8h8.6v43.2z"></path>
    <path d="m336.9 40.6h-20.4l-4.2 12.2h-8.6l18.1-51.8h10.1l18.1 51.8h-8.6zm-2.9-8.7-7.2-20.6-7.2 20.6z"></path>
    <path d="m407.6.9v51.8h-11.1l-24.6-40.3v40.3h-8.6v-51.8h11.9l23.7 39.1v-39.1z"></path>
    <path d="m467.2 35.5c-1.6 11.6-9 17.5-22.3 17.5-8.4 0-14.3-2.1-17.7-6.4s-5.1-11-5.1-20c0-9.1 1.7-15.8 5.2-20 3.4-4.4 9.3-6.6 17.7-6.6 13.3 0 20.7 5.8 22.3 17.5h-8c-.8-3.5-2.4-5.9-4.8-7.4s-5.5-2.2-9.5-2.2c-6 0-10 1.4-12 4.3s-3 7.6-3 14.3c0 6.8 1 11.6 3.1 14.4 2 2.8 6 4.2 12 4.2 4 0 7.2-.7 9.6-2.2s3.9-3.9 4.7-7.4z"></path>
    <path d="m511.3 40.6h-20.4l-4.2 12.2h-8.6l17.9-51.9h10.1l18.1 51.8h-8.6zm-3-8.7-7.2-20.6-7.2 20.6z"></path>
    <path d="m559.2 19.7c4.4.1 8.1.5 11.1 1.4s5.2 2.2 6.7 3.8c1.5 1.7 2.5 3.4 3.1 5.3s.9 4.1.9 6.7c0 7.7-4.7 12.6-14.1 14.9-1.2.3-2.6.6-4.2.7-.4.1-1 .1-1.7.2s-1.1.1-1.2.1c-6.2.2-10.7-.3-13.6-1.5-5.5-2.1-9.1-6.4-11-12.7-.2-.6-.3-1.6-.5-3.1h8c.2.8.3 1.5.5 2 1.8 5 6.4 7.5 13.7 7.5h2c1.4 0 2.9-.1 4.3-.4 1.5-.2 3-.6 4.6-1.2s2.9-1.5 3.9-2.7 1.5-2.6 1.5-4.3c0-3.5-1.1-5.7-3.3-6.7-2.2-.9-6-1.4-11.5-1.4h-.1c-7-.1-12.4-1.1-16.1-3.2s-5.6-5.6-5.6-10.7c0-3.3 1.3-6.2 3.9-8.7s6.4-4.2 11.5-5c2.9-.6 6.1-.8 9.6-.6s6.3.7 8.5 1.5c5.8 2.3 9.4 6.6 11 12.7l.2 1h-8.3c-1.8-5-6.3-7.5-13.7-7.5h-.1c-5.3 0-9.1.4-11.4 1.1-2.2.8-3.3 2.4-3.3 5 0 2.5 1 4 3 4.7s5.8 1 11.3 1h.4z"></path>
    <path d="m637.5 9.6h-17.6v43.2h-8.6v-43.2h-17.8v-8.7h44z"></path>
    <path d="m659.5 9.6v10.1h23.5v8.6h-23.4v15.8h35.7v8.6h-44.3v-51.8h44.3v8.6h-35.8z"></path>
    <path d="m744.4 52.8-10.7-24.3c-.9.1-2.3.1-4.3.1h-11.4v24.2h-8.6v-51.9h20.4c4.4 0 8.1.2 11 .5s5.3.8 7.1 1.4 3.2 1.5 4.1 2.6c.9 1.2 1.5 2.4 1.8 3.7s.4 3 .4 5.1c0 4.1-.7 7.2-2.1 9.2s-4.3 3.4-8.8 4.2l10.9 25.1h-9.8zm-15-32.9c7.5 0 12.2-.3 14.1-.9 1.8-.6 2.8-2.1 2.8-4.7 0-1.9-.6-3.2-1.9-3.8-1.4-.6-5.8-.9-13.1-.9-.4 0-.9 0-1.4 0h-11.9v10.3z"></path>
    <path d="m65.9 132.6c12.8 0 24 2.5 33.7 7.6s17.2 12.1 22.6 21.1 8.1 19.5 8.1 31.4c0 11.1-2.8 21.2-8.4 30.2s-13.3 16.1-23.2 21.3c-9.8 5.2-21.3 7.8-34.3 7.8-12.8 0-24-2.5-33.7-7.6s-17.2-12.2-22.6-21.2-8.1-19.4-8.1-31.2c0-11.4 2.8-21.6 8.4-30.6 5.6-8.9 13.3-16 23.2-21.1 9.8-5.2 21.2-7.7 34.3-7.7zm8.5 104.7c4.2-.8 7.5-3.1 9.9-6.9s3.8-9.2 4.2-16.1-.5-15.5-2.5-25.6c-2-9.9-4.5-18.1-7.5-24.5s-6.4-10.9-10.3-13.7-8-3.8-12.4-2.9c-4.2.8-7.5 3.1-9.9 6.9s-3.8 9.1-4.1 16 .5 15.5 2.5 25.8c2 9.9 4.5 18 7.5 24.4s6.5 11 10.3 13.7c3.7 2.7 7.9 3.7 12.3 2.9z"></path>
    <path d="m187.6 80.7v157.5l-16.5 9.1c-5.4 1.9-9.3 3.1-11.5 3.7s-4.3.9-6.3.9c-2.2 0-4-.7-5.4-2s-2.1-3.2-2.1-5.6v-140.3c0-2.3-.3-3.9-.9-4.9s-1.7-1.6-3.1-2l-4.4-.6c-1.6-.5-2.7-1.1-3.4-2s-1-2-1-3.3c0-1.7.5-3 1.4-3.9s2.6-1.9 5-2.8l24-9.1c3.7-1.4 6.7-2.4 8.8-3 2.2-.6 4-.8 5.6-.8 3.2 0 5.7.8 7.3 2.5 1.7 1.7 2.5 3.9 2.5 6.6zm-7.8 92.7-7-7.5c6.6-10.4 14-18.6 22.3-24.5s17.7-8.9 28.1-8.9c9.4 0 17.8 2.4 25.2 7.2s13.2 11.4 17.5 19.9 6.5 18.2 6.5 29.2c0 12.8-2.6 23.9-7.8 33.4s-12.2 16.8-21.1 22-18.9 7.8-30 7.8c-9.6 0-17.9-2.1-25.2-6.3-7.2-4.2-13.3-10.6-18.3-19l10.5-7.8c3.8 5.8 7.7 10.1 11.8 12.8s8.5 4 13.2 4c4.6 0 8.6-1.5 12.1-4.4s6.3-7.5 8.2-13.8c2-6.3 3-14.4 3-24.3 0-9.2-1-16.8-3-22.6s-4.7-10.2-8.2-13-7.5-4.2-12-4.2c-5 0-9.6 1.6-14 4.9-4.1 3.2-8.1 8.3-11.8 15.1z"></path>
    <path d="m334.1 145.6c-5.1 0-8.9 1.2-11.5 3.5s-4 5.2-4 8.7c0 2.1.4 4.1 1.3 5.9s2.7 3.4 5.4 4.9c2.8 1.5 6.9 2.7 12.6 3.8 13.5 2.5 23.8 5.7 31 9.7 7.1 3.9 12.1 8.5 14.8 13.7 2.7 5.3 4.1 11.2 4.1 17.7 0 11.9-4.2 21.3-12.6 28.2s-20.6 10.4-36.8 10.4c-5.6 0-10.1-.5-13.6-1.4s-6.3-1.8-8.5-2.7-4.1-1.4-5.7-1.4c-1.8 0-3.3.5-4.4 1.4s-2.3 1.8-3.4 2.8c-1.1.9-2.5 1.4-4.3 1.4-1.7 0-3-.5-3.9-1.5s-1.7-2.7-2.4-5.3l-7.1-22.3c-1-3.6-1.3-6.4-.9-8.5s1.7-3.5 3.8-4.3c2.2-.8 4.1-.8 5.8-.1 1.7.8 3.2 2.3 4.6 4.6 3.6 5.7 7.3 10.3 11.3 13.9s8.2 6.2 12.6 7.9 8.9 2.5 13.4 2.5c6.1 0 10.6-1.2 13.6-3.6s4.5-5.5 4.5-9.5c0-2.4-.6-4.6-1.8-6.5s-3.6-3.6-7.2-5.1-8.9-3-15.9-4.4c-10.8-2.1-19.4-5-25.8-8.7s-11-8.2-13.8-13.4c-2.8-5.3-4.2-11.5-4.2-18.6 0-7.4 2-13.9 5.9-19.4s9.4-9.8 16.2-12.9c6.9-3 14.8-4.6 23.8-4.6 5.8 0 10.4.5 13.8 1.4s6.2 1.9 8.4 2.9 4.3 1.5 6.3 1.5 3.6-.5 4.9-1.5 2.5-2 3.7-2.9 2.6-1.4 4.4-1.4c1.5 0 2.7.5 3.7 1.6s1.7 2.9 2.2 5.4l4.7 21.4c.6 3.5.7 6.1.3 8s-1.7 3.2-3.7 4c-2.1.9-4 .8-5.6-.1s-3.3-2.7-5-5.2c-5.1-8.1-10.8-13.8-16.9-17.1-6-3.2-12.1-4.8-18.1-4.8z"></path>
    <path d="m513.7 177.8c0 5-1.4 8.8-4.1 11.4s-6.7 4-11.8 4h-72.1v-10.8h40.2c4.2 0 6.3-1.9 6.3-5.8 0-10.1-1.5-17.6-4.6-22.4-3-4.8-7.1-7.2-12.3-7.2-3.8 0-7.2 1.2-10.2 3.7s-5.4 6.2-7.1 11.1-2.6 11-2.6 18.1c0 14.8 3.4 25.8 10.2 33 6.8 7.1 16 10.7 27.5 10.7 6.1 0 11.5-1 16.3-3s8.9-5.1 12.4-9.5c1.9-1.8 3.4-3 4.4-3.7 1-.6 2.1-.9 3.1-.9 1.4 0 2.4.7 3.1 2.1.6 1.4.9 3 .9 4.9-.2 6.9-2.5 13.2-7.1 19.1s-10.9 10.6-18.9 14.1-17.3 5.3-27.9 5.3c-11.8 0-22.3-2.4-31.5-7.1s-16.5-11.4-21.9-19.9c-5.3-8.5-8-18.5-8-29.8 0-12.5 2.5-23.4 7.5-32.8s12.2-16.7 21.6-22 20.7-7.9 33.9-7.9c11.4 0 21 1.9 28.8 5.8 7.9 3.9 13.8 9.2 17.8 16 4.1 6.9 6.1 14.7 6.1 23.5z"></path>
    <path d="m574.8 142 2.6 25.7v59.1c0 2.5.4 4.3 1.2 5.4s2.6 1.9 5.3 2.4l9.5 1.8c2.1.4 3.7 1.1 4.7 2.1s1.5 2.4 1.5 4.3c0 2-.7 3.5-2 4.6s-3.3 1.6-5.9 1.6h-60.4c-2.8 0-4.8-.5-6-1.6s-1.8-2.5-1.8-4.4c0-1.4.4-2.6 1.1-3.7.7-1 2-1.9 3.6-2.5l3.7-1.2c1.3-.6 2.2-1.4 2.8-2.7.6-1.2.9-3.2.9-6v-61.2c0-2.3-.3-3.9-.9-4.9s-1.7-1.6-3.1-2l-4.4-.6c-1.6-.5-2.7-1.1-3.4-2s-1-2-1-3.3c0-1.7.5-3 1.4-4s2.6-1.9 5-2.8l23.5-8.9c4.7-1.9 8.2-3.1 10.4-3.7s3.8-.8 5-.8c2 0 3.5.7 4.5 2.1 1 1.5 1.7 3.9 2.2 7.2zm-1.9 43.3c0-11.8 1.6-21.7 4.9-29.5 3.2-7.8 7.5-13.6 12.7-17.5 5.2-3.8 11-5.7 17.1-5.7 8 0 14.1 2.3 18.4 7s6.5 11.5 6.5 20.6c0 8.7-1.8 15.1-5.3 19.3s-8.1 6.3-13.8 6.3-10-1.5-12.9-4.4c-2.9-3-4.4-7.1-4.4-12.4v-4.7c-.1-2.2-.6-3.9-1.6-5s-2.5-1.7-4.7-1.7c-2.1 0-4.1.9-6 2.7s-3.4 4.7-4.6 8.5c-1.2 3.9-1.8 9-1.8 15.3z"></path>
    <path d="m709.6 249.5h-15.6c-2.9 0-5.4-.7-7.5-2.3-2.1-1.5-3.8-3.8-5.2-6.9l-33.8-83.3c-1.3-3-2.3-5-3.1-6s-1.7-1.7-2.6-2.1l-3.2-1.1c-1.6-.6-2.7-1.4-3.4-2.4-.7-.9-1-2.2-1-3.7 0-1.9.7-3.4 2-4.4 1.3-1.1 3.2-1.6 5.6-1.6h58.4c5 0 7.5 2 7.5 6 0 1.5-.4 2.7-1.2 3.7-.8.9-2.2 1.7-4.1 2.3l-3.8.8c-3.4.9-5.4 2.3-6.2 4.3-.7 2-.1 5.5 1.8 10.5l25.5 66.2-9.4 5.3 26.5-71.5c1.8-5.1 2.4-8.6 1.7-10.6s-2.7-3.4-6-4.2l-3.8-.8c-1.9-.6-3.3-1.3-4.1-2.3-.8-.9-1.2-2.2-1.2-3.7 0-1.9.7-3.4 2-4.4 1.3-1.1 3.2-1.6 5.4-1.6h31.4c2.4 0 4.2.5 5.6 1.6 1.3 1.1 2 2.5 2 4.4 0 1.3-.3 2.5-1 3.5s-2 1.8-4 2.4l-3 .7c-1.4.5-2.8 1.8-4 4-1.3 2.2-2.9 5.8-4.9 10.8l-30.6 77.9c-1.3 3.3-3.1 5.5-5.4 6.6-2.2 1.3-4.7 1.9-7.3 1.9z"></path>
    <path d="m881.3 177.8c0 5-1.4 8.8-4.1 11.4s-6.7 4-11.8 4h-72.1v-10.8h40.2c4.2 0 6.3-1.9 6.3-5.8 0-10.1-1.5-17.6-4.6-22.4-3-4.8-7.1-7.2-12.3-7.2-3.8 0-7.2 1.2-10.2 3.7s-5.4 6.2-7.1 11.1-2.6 11-2.6 18.1c0 14.8 3.4 25.8 10.2 33 6.8 7.1 16 10.7 27.5 10.7 6.1 0 11.5-1 16.3-3s8.9-5.1 12.4-9.5c1.9-1.8 3.4-3 4.4-3.7 1-.6 2.1-.9 3.1-.9 1.4 0 2.4.7 3.1 2.1.6 1.4.9 3 .9 4.9-.2 6.9-2.5 13.2-7.1 19.1s-10.9 10.6-18.9 14.1-17.3 5.3-27.9 5.3c-11.8 0-22.3-2.4-31.5-7.1s-16.5-11.4-21.9-19.9c-5.3-8.5-8-18.5-8-29.8 0-12.5 2.5-23.4 7.5-32.8s12.2-16.7 21.6-22 20.7-7.9 33.9-7.9c11.4 0 21 1.9 28.8 5.8 7.9 3.9 13.8 9.2 17.8 16 4 6.9 6.1 14.7 6.1 23.5z"></path>
    <path d="m942.3 142 2.6 25.7v59.1c0 2.5.4 4.3 1.2 5.4s2.6 1.9 5.3 2.4l9.5 1.8c2.1.4 3.7 1.1 4.7 2.1s1.5 2.4 1.5 4.3c0 2-.7 3.5-2 4.6s-3.3 1.6-5.9 1.6h-60.4c-2.8 0-4.8-.5-6-1.6s-1.8-2.5-1.8-4.4c0-1.4.4-2.6 1.1-3.7.7-1 2-1.9 3.6-2.5l3.7-1.2c1.3-.6 2.2-1.4 2.8-2.7.6-1.2.9-3.2.9-6v-61.2c0-2.3-.3-3.9-.9-4.9s-1.7-1.6-3.1-2l-4.4-.6c-1.6-.5-2.7-1.1-3.4-2s-1-2-1-3.3c0-1.7.5-3 1.4-4s2.6-1.9 5-2.8l23.5-8.9c4.7-1.9 8.2-3.1 10.4-3.7s3.8-.8 5-.8c2 0 3.5.7 4.5 2.1 1 1.5 1.7 3.9 2.2 7.2zm-1.9 43.3c0-11.8 1.6-21.7 4.9-29.5 3.2-7.8 7.5-13.6 12.7-17.5 5.3-3.8 11-5.7 17.1-5.7 8 0 14.1 2.3 18.4 7s6.5 11.5 6.5 20.6c0 8.7-1.8 15.1-5.3 19.3s-8.1 6.3-13.8 6.3-10-1.5-12.9-4.4c-2.9-3-4.4-7.1-4.4-12.4v-4.7c-.1-2.2-.6-3.9-1.6-5s-2.5-1.7-4.7-1.7c-2.1 0-4.1.9-6 2.7s-3.4 4.7-4.6 8.5c-1.2 3.9-1.8 9-1.8 15.3z"></path>
    <path d="m162.7 317.6c-.5-.7-.8-1.6-.8-2.6s.3-1.9.9-2.7c.3-.4.8-.9 1.6-1.4.5-.3.9-.5 1.1-.6s.4-.1.7-.1.5.1.6.4c.1.2 0 .4-.2.6-.5.4-.9.8-1.4 1.3-.3.4-.5.7-.6 1-.1.1-.1.3 0 .5h.1c.6 0 1.2.2 1.6.7.5.5.7 1 .7 1.7s-.2 1.2-.7 1.7-1 .7-1.6.7c-.9-.1-1.6-.5-2-1.2zm6.4 0c-.5-.7-.8-1.6-.8-2.6s.3-1.9.9-2.7c.3-.4.8-.9 1.6-1.4.5-.3.9-.5 1.1-.6s.4-.1.7-.1.5.1.6.4c.1.2 0 .4-.2.6-.5.4-.9.8-1.4 1.3-.3.4-.5.7-.6 1-.1.1-.1.3 0 .5h.1c.6 0 1.2.2 1.6.7.5.5.7 1 .7 1.7s-.2 1.2-.7 1.7-1 .7-1.6.7c-.9-.1-1.6-.5-2-1.2z"></path>
    <path d="m191.5 328.6h-8.8l-1.8 5.3h-3.7l7.8-22.3h4.3l7.8 22.3h-3.7zm-1.3-3.7-3.2-8.9-3.1 8.9z"></path>
    <path d="m222.6 330.1v3.7h-19.1v-22.3h3.7v18.6z"></path>
    <path d="m248.3 330.1v3.7h-19.1v-22.3h3.7v18.6z"></path>
    <path d="m289.3 315.3h-7.6v18.6h-3.7v-18.6h-7.7v-3.7h19z"></path>
    <path d="m315 311.5v22.3h-3.7v-10.5h-11.7v10.5h-3.7v-22.3h3.7v8.1h11.7v-8.1z"></path>
    <path d="m326 315.3v4.3h10.1v3.7h-10.1v6.8h15.4v3.7h-19.1v-22.3h19.1v3.7h-15.4z"></path>
    <path d="m382.6 311.5v22.3h-4.8l-10.6-17.4v17.4h-3.7v-22.3h5.1l10.3 16.9v-16.9z"></path>
    <path d="m393.7 315.3v4.3h10.1v3.7h-10.1v6.8h15.4v3.7h-19.1v-22.3h19.1v3.7h-15.4z"></path>
    <path d="m437.9 311.5-3.9 22.3h-4.4l-2.9-16.4-2.9 16.4h-4.4l-3.9-22.3h3.2l3 17.4 2.9-17.4h4.1l2.9 17.4 3-17.4z"></path>
    <path d="m454 319.6c1.9 0 3.5.2 4.8.6s2.3.9 2.9 1.6 1.1 1.5 1.3 2.3.4 1.8.4 2.9c0 3.3-2 5.4-6.1 6.4-.5.1-1.1.2-1.8.3-.2 0-.4 0-.7.1-.3 0-.5 0-.5 0-2.7.1-4.6-.1-5.9-.6-2.4-.9-3.9-2.8-4.7-5.5-.1-.2-.1-.7-.2-1.3h3.5c.1.4.1.6.2.8.8 2.2 2.8 3.3 5.9 3.3h.8c.6 0 1.2-.1 1.9-.2.6-.1 1.3-.3 2-.5s1.2-.6 1.7-1.2c.4-.5.6-1.1.6-1.9 0-1.5-.5-2.5-1.4-2.9s-2.6-.6-5-.6c-3 0-5.3-.5-7-1.4-1.6-.9-2.4-2.4-2.4-4.6 0-1.4.6-2.7 1.7-3.8s2.8-1.8 5-2.2c1.2-.2 2.6-.3 4.1-.3 1.5.1 2.7.3 3.6.7 2.5 1 4.1 2.8 4.7 5.5l.1.4h-3.6c-.8-2.2-2.7-3.3-5.9-3.3-2.3 0-3.9.2-4.9.5s-1.4 1-1.4 2.2c0 1.1.4 1.7 1.3 2s2.5.4 4.9.4h.1z"></path>
    <path d="m504.4 330.1v3.7h-19.1v-22.3h3.7v18.6z"></path>
    <path d="m530 311.5v22.3h-4.8l-10.6-17.4v17.4h-3.7v-22.3h5.1l10.3 16.9v-16.9z"></path>
    <path d="m546.1 311.5c1.7 0 3 0 4.2.1s2.1.3 2.9.5c.8.3 1.4.5 1.9.8s.8.7 1 1.3.4 1.1.4 1.7c.1.6.1 1.3.1 2.3 0 .8 0 1.5-.1 2 0 .5-.1 1.1-.3 1.6-.2.6-.4 1-.7 1.3s-.7.6-1.2 1c-.5.3-1.1.6-1.9.7-.8.2-1.7.3-2.7.4-1.1.1-2.3.1-3.7.1h-4.9v8.4h-3.7v-22.3h8.7zm-.1 10.2h2.6c.6 0 1.2-.1 1.8-.1s1.1-.1 1.3-.2c.3-.1.5-.2.8-.4.3-.1.4-.3.5-.6s.1-.6.2-.9c0-.3.1-.7.1-1.2 0-1.3-.2-2.1-.6-2.4-.4-.4-1.7-.6-3.7-.6-.4 0-1.4 0-2.8 0h-5.1v6.5h4.9z"></path>
    <path d="m600.9 311.5-3.9 22.3h-4.4l-2.9-16.4-2.9 16.4h-4.4l-3.9-22.3h3.2l3 17.4 2.9-17.4h4.1l2.9 17.4 3-17.4z"></path>
    <path d="m606.8 322.5c0-4 .7-6.9 2.2-8.7 1.5-1.9 4-2.8 7.6-2.7 3.6 0 6.2 1 7.6 2.8 1.5 1.8 2.2 4.7 2.2 8.6s-.7 6.8-2.2 8.6c-1.5 1.9-4 2.8-7.6 2.8s-6.2-.9-7.7-2.8c-1.3-1.8-2.1-4.6-2.1-8.6zm3.4 0c0 2.9.4 4.9 1.3 6.2.9 1.2 2.6 1.9 5.1 1.9 2.6 0 4.3-.6 5.2-1.8s1.3-3.3 1.3-6.2-.4-5-1.3-6.2-2.6-1.8-5.2-1.8c-2.5 0-4.2.6-5.1 1.9-.9 1.1-1.3 3.2-1.3 6z"></path>
    <path d="m652.6 311.5v22.3h-4.8l-10.6-17.4v17.4h-3.7v-22.3h5.1l10.3 16.9v-16.9z"></path>
    <path d="m664 310.6c.5.7.8 1.6.8 2.6s-.3 1.9-.9 2.7c-.3.4-.8.9-1.6 1.4-.5.3-.9.5-1.1.6s-.4.1-.7.1-.5-.1-.6-.4c-.1-.2 0-.4.2-.6.5-.4.9-.8 1.4-1.3.3-.4.5-.7.6-1 .1-.1.1-.3 0-.5h-.1c-.7 0-1.2-.2-1.7-.7s-.7-1-.7-1.7.2-1.2.7-1.7 1-.7 1.7-.7c.9.1 1.6.4 2 1.2z"></path>
    <path d="m690.3 315.3h-7.6v18.6h-3.7v-18.6h-7.7v-3.7h19z"></path>
    <path d="m721.1 311.5c1.7 0 3 0 4.2.1 1.1.1 2.1.3 2.9.5.8.3 1.4.5 1.9.8s.8.7 1 1.3.4 1.1.4 1.7c.1.6.1 1.3.1 2.3 0 .8 0 1.5-.1 2 0 .5-.1 1.1-.3 1.6-.2.6-.4 1-.7 1.3s-.7.6-1.2 1c-.5.3-1.1.6-1.9.7-.8.2-1.7.3-2.7.4-1.1.1-2.3.1-3.7.1h-4.9v8.4h-3.7v-22.3h8.7zm-.1 10.2h2.6c.6 0 1.2-.1 1.8-.1s1.1-.1 1.3-.2c.3-.1.5-.2.8-.4.3-.1.4-.3.5-.6s.1-.6.2-.9c0-.3.1-.7.1-1.2 0-1.3-.2-2.1-.6-2.4-.4-.4-1.7-.6-3.7-.6-.4 0-1.4 0-2.8 0h-5.1v6.5h4.9z"></path>
    <path d="m753.3 333.9-4.6-10.5c-.4 0-1 0-1.9 0h-4.9v10.4h-3.7v-22.3h8.8c1.9 0 3.5.1 4.7.2 1.3.1 2.3.3 3.1.6s1.4.6 1.8 1.1.7 1 .8 1.6.2 1.3.2 2.2c0 1.8-.3 3.1-.9 4s-1.9 1.5-3.8 1.8l4.7 10.8h-4.3zm-6.5-14.2c3.3 0 5.3-.1 6.1-.4.8-.2 1.2-.9 1.2-2 0-.8-.3-1.4-.8-1.6-.6-.3-2.5-.4-5.7-.4-.2 0-.4 0-.6 0h-5.1v4.4z"></path>
    <path d="m768.1 311.5v22.3h-3.7v-22.3z"></path>
    <path d="m794.6 311.5v22.3h-4.8l-10.6-17.4v17.4h-3.7v-22.3h5.1l10.3 16.9v-16.9z"></path>
    <path d="m820.1 315.3h-7.6v18.6h-3.7v-18.6h-7.7v-3.7h19z"></path>
    <path d="m830.9 311.3c.5.7.8 1.6.8 2.6s-.3 1.9-.9 2.7c-.3.4-.8.9-1.6 1.4-.5.3-.9.5-1.1.6s-.4.1-.7.1-.5-.1-.6-.4c-.1-.2 0-.4.2-.6.5-.4.9-.8 1.4-1.3.3-.4.5-.7.6-1 .1-.1.1-.3 0-.5h-.1c-.7 0-1.2-.2-1.7-.7s-.7-1-.7-1.7.2-1.2.7-1.7 1-.7 1.7-.7c.9-0 1.6.4 2 1.2zm6.4 0c.5.7.8 1.6.8 2.6s-.3 1.9-.9 2.7c-.3.4-.8.9-1.6 1.4-.5.3-.9.5-1.1.6s-.4.1-.7.1-.5-.1-.6-.4c-.1-.2 0-.4.2-.6.5-.4.9-.8 1.4-1.3.3-.4.5-.7.6-1 .1-.1.1-.3 0-.5h-.1c-.7 0-1.2-.2-1.7-.7s-.7-1-.7-1.7.2-1.2.7-1.7 1-.7 1.7-.7c.9-0 1.6.4 2 1.2z"></path>
    <path d="m854.2 350h-708.4v-54.6h708.4zm-704.7-3.7h701v-47.3h-701z"></path>
  </g>
</svg>
